<svg width="14" height="11" viewBox="0 0 14 11" fill="none" xmlns="http://www.w3.org/2000/svg">
<path d="M4.6857 5.12216C5.38488 5.12216 5.95122 5.68338 5.93841 6.36932C5.93841 7.05525 5.38605 7.61647 4.6857 7.61647C3.99817 7.61647 3.43183 7.05525 3.43183 6.36932C3.43183 5.68338 3.98535 5.12216 4.6857 5.12216ZM9.1698 5.12216C9.87015 5.12216 10.4237 5.68338 10.4237 6.36932C10.4237 7.05525 9.87015 7.61647 9.1698 7.61647C8.48227 7.61647 7.9171 7.05525 7.9171 6.36932C7.9171 5.68338 8.46945 5.12216 9.1698 5.12216ZM10.3316 11C12.9804 10.909 14 9.00954 14 9.00954C14 4.79292 12.273 1.37447 12.273 1.37447C10.5484 -0.038558 8.90528 0.000104073 8.90528 0.000104073L8.73747 0.209626C10.7756 0.890572 11.7218 1.87333 11.7218 1.87333C10.609 1.20235 9.38263 0.775007 8.11403 0.616198C7.30932 0.518925 6.49651 0.527301 5.69369 0.641141C5.62144 0.641141 5.56085 0.65486 5.48976 0.667331C5.07025 0.70724 4.05061 0.876853 2.76877 1.49295C2.32595 1.71494 2.06143 1.87333 2.06143 1.87333C2.06143 1.87333 3.0566 0.838191 5.21358 0.157245L5.09356 0.000104073C5.09356 0.000104073 3.45164 -0.038558 1.72582 1.37571C1.72582 1.37571 0 4.79292 0 9.00954C0 9.00954 1.00683 10.9077 3.65557 11C3.65557 11 4.09839 10.4113 4.45963 9.91373C2.93657 9.41487 2.36208 8.36726 2.36208 8.36726C2.36208 8.36726 2.48094 8.45955 2.69652 8.5905C2.70817 8.60297 2.71983 8.61669 2.7443 8.62916C2.78042 8.6566 2.81655 8.66907 2.85267 8.69526C3.15216 8.87859 3.45164 9.02201 3.72665 9.14049C4.21841 9.35002 4.80573 9.55954 5.48976 9.70421C6.51444 9.91917 7.56798 9.9234 8.59414 9.71668C9.19185 9.60251 9.77498 9.41373 10.3316 9.15421C10.7511 8.98335 11.2184 8.73392 11.7102 8.38098C11.7102 8.38098 11.1112 9.45478 9.54037 9.93992C9.90045 10.4375 10.3328 11 10.3328 11H10.3316Z" fill="#EBEBF5" fill-opacity="0.6"/>
</svg>
